<?xml version="1.0" encoding="utf-8"?>
<!-- Generator: Adobe Illustrator 22.0.1, SVG Export Plug-In . SVG Version: 6.00 Build 0)  -->
<svg version="1.1" id="Layer_1" xmlns="http://www.w3.org/2000/svg" xmlns:xlink="http://www.w3.org/1999/xlink" x="0px" y="0px"
	 viewBox="0 0 606 239" style="enable-background:new 0 0 606 239;" xml:space="preserve">
<style type="text/css">
	.st0{fill:#FFFFFF;}
	.st1{font-family:'TheNextFont';}
	.st2{font-size:83.1626px;}
	.st3{fill:#D8D8D8;}
	.st4{fill:#E2E2E2;}
	.st5{fill:#BFBFBF;}
	.st6{fill:#231F20;}
	.st7{fill:#CC1F82;}
	.st8{fill:none;stroke:#424242;stroke-width:1.3846;stroke-miterlimit:10;}
	.st9{fill:#686867;}
	.st10{fill:none;stroke:#424242;stroke-width:3.4615;stroke-miterlimit:10;}
</style>
<text transform="matrix(1 0 0 1 28.1069 99.8716)"><tspan x="0" y="0" class="st0 st1 st2">Comparethe</tspan><tspan x="-28" y="83.2" class="st0 st1 st2">chatbot.com</tspan></text>
<g>
	<ellipse class="st0" cx="503.2" cy="152.6" rx="32" ry="31.6"/>
	<g>
		<path class="st3" d="M514.6,172.3h-22.2c-6.9,0-12.5-5.6-12.5-12.5v-3.4c0-6.9,5.6-12.5,12.5-12.5h22.2c6.9,0,12.5,5.6,12.5,12.5
			v3.4C527.2,166.6,521.5,172.3,514.6,172.3z"/>
		<path class="st4" d="M496.3,147.3c4.3,1.2,9.1,1.3,13.4,0.5c2.2-0.4,4.5-1.1,6.4-2.3c0.6-0.4,1.2-0.9,1.6-1.4
			c-0.8-0.2-1.7-0.3-2.6-0.3h-23.2c-0.9,0-1.8,0.1-2.6,0.3C491.5,145.5,493.8,146.6,496.3,147.3z"/>
		<path class="st5" d="M511.5,168.6c-6.4,0.2-12.8,0.1-19.2-0.1c-3-0.1-6-0.2-8.9-0.5c-0.3,0-0.5-0.1-0.7-0.1
			c2.2,2.7,5.6,4.3,9.3,4.3h23.2c3.8,0,7.1-1.7,9.3-4.4C520.2,168.3,515.8,168.5,511.5,168.6z"/>
		<path class="st6" d="M490.6,156.4c0,1.8-0.4,3.2-0.9,3.2c-0.5,0-0.9-1.4-0.9-3.2c0-1.8,0.4-3.2,0.9-3.2
			C490.2,153.1,490.6,154.6,490.6,156.4z"/>
		<path class="st6" d="M504.4,156.4c0,1.8-0.4,3.2-0.9,3.2c-0.5,0-0.9-1.4-0.9-3.2c0-1.8,0.4-3.2,0.9-3.2
			C504,153.1,504.4,154.6,504.4,156.4z"/>
		<path class="st6" d="M518.3,156.4c0,1.8-0.4,3.2-0.9,3.2s-0.9-1.4-0.9-3.2c0-1.8,0.4-3.2,0.9-3.2S518.3,154.6,518.3,156.4z"/>
		<path class="st7" d="M477.5,163.1L477.5,163.1c-1.2,0-2.3-1-2.3-2.2v-6.5c0-1.2,1-2.2,2.3-2.2l0,0c1.2,0,2.3,1,2.3,2.2v6.5
			C479.8,162.1,478.8,163.1,477.5,163.1z"/>
		<path class="st8" d="M477.5,163.1L477.5,163.1c-1.2,0-2.3-1-2.3-2.2v-6.5c0-1.2,1-2.2,2.3-2.2l0,0c1.2,0,2.3,1,2.3,2.2v6.5
			C479.8,162.1,478.8,163.1,477.5,163.1z"/>
		<path class="st7" d="M529.4,163.1L529.4,163.1c-1.2,0-2.3-1-2.3-2.2v-6.5c0-1.2,1-2.2,2.3-2.2l0,0c1.2,0,2.3,1,2.3,2.2v6.5
			C531.7,162.1,530.7,163.1,529.4,163.1z"/>
		<path class="st8" d="M529.4,163.1L529.4,163.1c-1.2,0-2.3-1-2.3-2.2v-6.5c0-1.2,1-2.2,2.3-2.2l0,0c1.2,0,2.3,1,2.3,2.2v6.5
			C531.7,162.1,530.7,163.1,529.4,163.1z"/>
		<g>
			<g>
				<g>
					<path class="st0" d="M505.3,164.4c-1.3,0.6-2.9,0.7-4.2,0.1c0,0,0,0-0.1,0c-2.2-0.9-3.9,2.3-1.2,3.8c2.7,1.6,6.6,1.1,8.3-1
						C509.5,165.5,507.9,163.2,505.3,164.4z"/>
					<g>
						<defs>
							<path id="SVGID_1_" d="M505.3,164.4c-1.3,0.6-2.9,0.7-4.2,0.1c0,0,0,0-0.1,0c-2.2-0.9-3.9,2.3-1.2,3.8c2.7,1.6,6.6,1.1,8.3-1
								C509.5,165.5,507.9,163.2,505.3,164.4z"/>
						</defs>
						<use xlink:href="#SVGID_1_"  style="overflow:visible;fill:#FFFFFF;"/>
						<clipPath id="SVGID_2_">
							<use xlink:href="#SVGID_1_"  style="overflow:visible;"/>
						</clipPath>
					</g>
				</g>
				<g>
					<defs>
						<path id="SVGID_3_" d="M505.3,164.3c-1.3,0.6-2.9,0.7-4.2,0.1c0,0,0,0-0.1,0c-2.2-0.9-3.9,2.3-1.2,3.8c2.7,1.6,6.6,1.1,8.3-1
							C509.5,165.4,507.9,163.1,505.3,164.3z"/>
					</defs>
					<use xlink:href="#SVGID_3_"  style="overflow:visible;fill:#FFFFFF;"/>
					<clipPath id="SVGID_4_">
						<use xlink:href="#SVGID_3_"  style="overflow:visible;"/>
					</clipPath>
				</g>
			</g>
			<path class="st8" d="M498.4,165.7c0,0,1.5,1,3,1.2l0.4-0.9l1.2,2.5l0.7-1.9c0,0,2.7,0.1,4.8-1.2"/>
			<g>
				<g>
					<path class="st8" d="M505.3,164.4c-1.3,0.6-2.9,0.7-4.2,0.1c0,0,0,0-0.1,0c-2.2-0.9-3.9,2.3-1.2,3.8c2.7,1.6,6.6,1.1,8.3-1
						C509.5,165.5,507.9,163.2,505.3,164.4z"/>
					<g>
						<defs>
							<path id="SVGID_5_" d="M505.3,164.4c-1.3,0.6-2.9,0.7-4.2,0.1c0,0,0,0-0.1,0c-2.2-0.9-3.9,2.3-1.2,3.8c2.7,1.6,6.6,1.1,8.3-1
								C509.5,165.5,507.9,163.2,505.3,164.4z"/>
						</defs>
						<clipPath id="SVGID_6_">
							<use xlink:href="#SVGID_5_"  style="overflow:visible;"/>
						</clipPath>
						<use xlink:href="#SVGID_5_"  style="overflow:visible;fill:none;stroke:#424242;stroke-width:1.3846;stroke-miterlimit:10;"/>
					</g>
				</g>
				<g>
					<defs>
						<path id="SVGID_7_" d="M505.3,164.3c-1.3,0.6-2.9,0.7-4.2,0.1c0,0,0,0-0.1,0c-2.2-0.9-3.9,2.3-1.2,3.8c2.7,1.6,6.6,1.1,8.3-1
							C509.5,165.4,507.9,163.1,505.3,164.3z"/>
					</defs>
					<clipPath id="SVGID_8_">
						<use xlink:href="#SVGID_7_"  style="overflow:visible;"/>
					</clipPath>
					<use xlink:href="#SVGID_7_"  style="overflow:visible;fill:none;stroke:#424242;stroke-width:1.3846;stroke-miterlimit:10;"/>
				</g>
			</g>
		</g>
		<path class="st8" d="M514.4,172.3h-21.8c-7,0-12.7-5.7-12.7-12.7v-3c0-7,5.7-12.7,12.7-12.7h21.8c7,0,12.7,5.7,12.7,12.7v3
			C527.1,166.6,521.4,172.3,514.4,172.3z"/>
		<g>
			<path class="st9" d="M482.6,159.9c0,0.2-0.2,0.4-0.5,0.4c-0.2,0-0.5-0.2-0.5-0.4s0.2-0.4,0.5-0.4
				C482.4,159.4,482.6,159.6,482.6,159.9z"/>
			<path class="st9" d="M482.6,157.2c0,0.2-0.2,0.4-0.5,0.4c-0.2,0-0.5-0.2-0.5-0.4c0-0.2,0.2-0.4,0.5-0.4
				C482.4,156.7,482.6,156.9,482.6,157.2z"/>
			<path class="st9" d="M482.6,154.4c0,0.2-0.2,0.4-0.5,0.4c-0.2,0-0.5-0.2-0.5-0.4c0-0.2,0.2-0.4,0.5-0.4
				C482.4,154,482.6,154.2,482.6,154.4z"/>
		</g>
		<g>
			<path class="st9" d="M525.1,159.9c0,0.2-0.2,0.4-0.5,0.4c-0.2,0-0.5-0.2-0.5-0.4s0.2-0.4,0.5-0.4
				C524.9,159.4,525.1,159.6,525.1,159.9z"/>
			<path class="st9" d="M525.1,157.2c0,0.2-0.2,0.4-0.5,0.4c-0.2,0-0.5-0.2-0.5-0.4c0-0.2,0.2-0.4,0.5-0.4
				C524.9,156.7,525.1,156.9,525.1,157.2z"/>
			<path class="st9" d="M525.1,154.4c0,0.2-0.2,0.4-0.5,0.4c-0.2,0-0.5-0.2-0.5-0.4c0-0.2,0.2-0.4,0.5-0.4
				C524.9,154,525.1,154.2,525.1,154.4z"/>
		</g>
		<path class="st10" d="M503.5,143.8c0,0-0.3-10,5.9-9.9"/>
		<ellipse class="st7" cx="511.2" cy="133.7" rx="2.5" ry="2.5"/>
		<ellipse class="st8" cx="511.2" cy="133.7" rx="2.5" ry="2.5"/>
		<path class="st9" d="M492.2,151.4c0.9-0.1,1-1.4,0.1-1.7c-1.3-0.3-2.8-0.3-3.7,0.7C487.4,151.8,489.9,151.7,492.2,151.4z"/>
		<path class="st9" d="M505.1,151.4c0.9-0.1,1-1.4,0.1-1.7c-1.3-0.3-2.8-0.3-3.7,0.7C500.2,151.8,502.8,151.7,505.1,151.4z"/>
		<path class="st9" d="M515.1,151.4c-0.9-0.1-1-1.4-0.1-1.7c1.3-0.3,2.8-0.3,3.7,0.7C519.9,151.8,517.4,151.7,515.1,151.4z"/>
	</g>
</g>
</svg>
